{
  "accessors": [
    {
      "bufferView": 2,
      "componentType": 5126,
      "count": 547,
      "max": [
        0.18983699381351471,
        0.39237400889396667,
        0.2117840051651001
      ],
      "min": [
        -0.24625499546527863,
        -0.36913898587226868,
        -0.23260000348091125
      ],
      "type": "VEC3"
    },
    {
      "bufferView": 2,
      "byteOffset": 6564,
      "componentType": 5126,
      "count": 547,
      "max": [
        0.99892336130142212,
        0.97878009080886841,
        0.99603676795959473
      ],
      "min": [
        -0.99583423137664795,
        -0.9627155065536499,
        -0.9999617338180542
      ],
      "type": "VEC3"
    },
    {
      "bufferView": 3,
      "componentType": 5126,
      "count": 547,
      "max": [
        0.99816697835922241,
        0.99912101030349731,
        0.99956297874450684,
        1
      ],
      "min": [
        -0.99534398317337036,
        -0.95153498649597168,
        -0.99894201755523682,
        -1
      ],
      "type": "VEC4"
    },
    {
      "bufferView": 1,
      "componentType": 5126,
      "count": 547,
      "max": [
        0.96510899066925049,
        0.96583098173141479
      ],
      "min": [
        0.026074899360537529,
        0.027754999697208405
      ],
      "type": "VEC2"
    },
    {
      "bufferView": 0,
      "componentType": 5125,
      "count": 2508,
      "max": [
        546
      ],
      "min": [
        0
      ],
      "type": "SCALAR"
    },
    {
      "bufferView": 2,
      "byteOffset": 13128,
      "componentType": 5126,
      "count": 26,
      "max": [
        0.46400898694992065,
        1,
        0.50337398052215576
      ],
      "min": [
        -0.46400898694992065,
        -1,
        -0.50337398052215576
      ],
      "type": "VEC3"
    },
    {
      "bufferView": 2,
      "byteOffset": 13440,
      "componentType": 5126,
      "count": 26,
      "max": [
        0.93252921104431152,
        0.88039988279342651,
        0.98163723945617676
      ],
      "min": [
        -0.81500709056854248,
        -0.71442806720733643,
        -0.97668159008026123
      ],
      "type": "VEC3"
    },
    {
      "bufferView": 3,
      "byteOffset": 8752,
      "componentType": 5126,
      "count": 26,
      "max": [
        0.99364101886749268,
        0.60175400972366333,
        0.94742000102996826,
        1
      ],
      "min": [
        -0.99143499135971069,
        -0.41723299026489258,
        -0.93864601850509644,
        1
      ],
      "type": "VEC4"
    },
    {
      "bufferView": 1,
      "byteOffset": 4376,
      "componentType": 5126,
      "count": 26,
      "max": [
        0.97415202856063843,
        0.96089601516723633
      ],
      "min": [
        0.03333200141787529,
        0.043123599141836166
      ],
      "type": "VEC2"
    },
    {
      "bufferView": 0,
      "byteOffset": 10032,
      "componentType": 5125,
      "count": 96,
      "max": [
        25
      ],
      "min": [
        0
      ],
      "type": "SCALAR"
    }
  ],
  "asset": {
    "extras": {
      "author": "lukinu (https://sketchfab.com/lukinu)",
      "license": "CC-BY-4.0 (http://creativecommons.org/licenses/by/4.0/)",
      "source": "https://sketchfab.com/models/1dacc91d294141658633cce0a79ecd97",
      "title": "Heart in glass"
    },
    "generator": "Sketchfab-3.36.2",
    "version": "2.0"
  },
  "bufferViews": [
    {
      "buffer": 0,
      "byteLength": 10416,
      "byteOffset": 0,
      "name": "floatBufferViews",
      "target": 34963
    },
    {
      "buffer": 0,
      "byteLength": 4584,
      "byteOffset": 10416,
      "byteStride": 8,
      "name": "floatBufferViews",
      "target": 34962
    },
    {
      "buffer": 0,
      "byteLength": 13752,
      "byteOffset": 15000,
      "byteStride": 12,
      "name": "floatBufferViews",
      "target": 34962
    },
    {
      "buffer": 0,
      "byteLength": 9168,
      "byteOffset": 28752,
      "byteStride": 16,
      "name": "floatBufferViews",
      "target": 34962
    }
  ],
  "buffers": [
    {
      "byteLength": 37920,
      "uri": "scene.bin"
    }
  ],
  "images": [
    {
      "uri": "textures/Coeur1_metallicRoughness.png"
    },
    {
      "uri": "textures/Coeur1_baseColor.jpeg"
    },
    {
      "uri": "textures/Coeur1_normal.jpeg"
    },
    {
      "uri": "textures/Coeur1_emissive.jpeg"
    },
    {
      "uri": "textures/Crystal_metallicRoughness.png"
    },
    {
      "uri": "textures/Crystal_baseColor.png"
    },
    {
      "uri": "textures/Crystal_normal.jpeg"
    },
    {
      "uri": "textures/Crystal_emissive.jpeg"
    }
  ],
  "materials": [
    {
      "alphaMode": "BLEND",
      "doubleSided": true,
      "emissiveFactor": [
        1,
        1,
        1
      ],
      "emissiveTexture": {
        "index": 7,
        "texCoord": 0
      },
      "name": "Crystal",
      "normalTexture": {
        "index": 6,
        "scale": 1,
        "texCoord": 0
      },
      "occlusionTexture": {
        "index": 4,
        "strength": 1,
        "texCoord": 0
      },
      "pbrMetallicRoughness": {
        "baseColorFactor": [
          1,
          1,
          1,
          1
        ],
        "baseColorTexture": {
          "index": 5,
          "texCoord": 0
        },
        "metallicFactor": 1,
        "metallicRoughnessTexture": {
          "index": 4,
          "texCoord": 0
        },
        "roughnessFactor": 1
      }
    },
    {
      "doubleSided": true,
      "emissiveFactor": [
        0.32202743900000003,
        0.32202743900000003,
        0.32202743900000003
      ],
      "emissiveTexture": {
        "index": 3,
        "texCoord": 0
      },
      "name": "Coeur1",
      "normalTexture": {
        "index": 2,
        "scale": 1,
        "texCoord": 0
      },
      "occlusionTexture": {
        "index": 0,
        "strength": 1,
        "texCoord": 0
      },
      "pbrMetallicRoughness": {
        "baseColorFactor": [
          1,
          1,
          1,
          1
        ],
        "baseColorTexture": {
          "index": 1,
          "texCoord": 0
        },
        "metallicFactor": 1,
        "metallicRoughnessTexture": {
          "index": 0,
          "texCoord": 0
        },
        "roughnessFactor": 1
      }
    }
  ],
  "meshes": [
    {
      "name": "defaultMaterial",
      "primitives": [
        {
          "attributes": {
            "NORMAL": 1,
            "POSITION": 0,
            "TANGENT": 2,
            "TEXCOORD_0": 3
          },
          "indices": 4,
          "material": 1,
          "mode": 4
        }
      ]
    },
    {
      "name": "defaultMaterial",
      "primitives": [
        {
          "attributes": {
            "NORMAL": 6,
            "POSITION": 5,
            "TANGENT": 7,
            "TEXCOORD_0": 8
          },
          "indices": 9,
          "material": 0,
          "mode": 4
        }
      ]
    }
  ],
  "nodes": [
    {
      "children": [
        1
      ],
      "name": "RootNode (gltf orientation matrix)",
      "rotation": [
        -0.70710678118654746,
        -0,
        -0,
        0.70710678118654757
      ]
    },
    {
      "children": [
        2
      ],
      "name": "RootNode (model correction matrix)"
    },
    {
      "children": [
        3,
        5
      ],
      "matrix": [
        1,
        0,
        0,
        0,
        0,
        -4.3711390063094768e-08,
        0.999999999999999,
        0,
        0,
        -0.999999999999999,
        -4.3711390063094768e-08,
        0,
        0,
        0,
        0,
        1
      ],
      "name": "Collada visual scene group"
    },
    {
      "children": [
        4
      ],
      "name": "CoeurLP"
    },
    {
      "mesh": 0,
      "name": "defaultMaterial"
    },
    {
      "children": [
        6
      ],
      "name": "CrystalLP"
    },
    {
      "mesh": 1,
      "name": "defaultMaterial"
    }
  ],
  "samplers": [
    {
      "magFilter": 9729,
      "minFilter": 9987,
      "wrapS": 10497,
      "wrapT": 10497
    }
  ],
  "scene": 0,
  "scenes": [
    {
      "name": "OSG_Scene",
      "nodes": [
        0
      ]
    }
  ],
  "textures": [
    {
      "sampler": 0,
      "source": 0
    },
    {
      "sampler": 0,
      "source": 1
    },
    {
      "sampler": 0,
      "source": 2
    },
    {
      "sampler": 0,
      "source": 3
    },
    {
      "sampler": 0,
      "source": 4
    },
    {
      "sampler": 0,
      "source": 5
    },
    {
      "sampler": 0,
      "source": 6
    },
    {
      "sampler": 0,
      "source": 7
    }
  ]
}

